<?xml version="1.0" encoding="UTF-8"?>
<!DOCTYPE svg PUBLIC "-//W3C//DTD SVG 1.0//EN" "http://www.w3.org/TR/2001/REC-SVG-20010904/DTD/svg10.dtd">
<!-- Creator: CorelDRAW 2020 (64 Bit) -->
<svg xmlns="http://www.w3.org/2000/svg" xml:space="preserve" width="174px" height="48px" version="1.0" shape-rendering="geometricPrecision" text-rendering="geometricPrecision" image-rendering="optimizeQuality" fill-rule="evenodd" clip-rule="evenodd"
viewBox="0 0 174 47.94"
 xmlns:xlink="http://www.w3.org/1999/xlink"
 xmlns:xodm="http://www.corel.com/coreldraw/odm/2003">
 <defs>
     <clipPath id="id0">
      <path d="M14.29 24.48c1.21,-3.28 5.18,-12.15 5.72,-14.21 0.71,-2.75 -1.19,-5.71 -3.53,-8.45 -1.77,-2.08 -5.26,-2.59 -7.71,-0.39 -1.5,1.35 -5.44,11.93 -6.43,14.35 -2.57,6.25 -3.97,8.38 0.93,15.71 4.83,7.22 7.05,7.75 13.83,7.49 2.6,-0.09 13.9,0.42 15.66,-0.23 7.55,-2.77 1.37,-12.96 -2.99,-13.88 -1.74,-0.36 -5.76,-0.16 -7.77,-0.14 -1.39,0.02 -6.76,0.24 -7.71,-0.25z"/>
     </clipPath>
        <mask id="id1">
          <linearGradient id="id2" gradientUnits="userSpaceOnUse" x1="42.85" y1="-2.43" x2="26.13" y2="-3.45">
           <stop offset="0" stop-opacity="1" stop-color="white"/>
           <stop offset="1" stop-opacity="0" stop-color="white"/>
          </linearGradient>
         <rect fill="url(#id2)" x="19.29" y="-11.96" width="26.39" height="19.62"/>
        </mask>
        <mask id="id3">
          <linearGradient id="id4" gradientUnits="userSpaceOnUse" x1="14.09" y1="32.49" x2="30.81" y2="33.52">
           <stop offset="0" stop-opacity="1" stop-color="white"/>
           <stop offset="1" stop-opacity="0" stop-color="white"/>
          </linearGradient>
         <rect fill="url(#id4)" x="11.26" y="22.4" width="26.39" height="19.63"/>
        </mask>
     <clipPath id="id5">
      <path d="M42.65 23.4c-0.84,2.01 -1.92,4.56 -2.88,6.97l-2.93 7.21c-1,4.14 5.41,14.14 11.27,8.85 1.53,-1.38 5.38,-11.86 6.42,-14.35 2.57,-6.17 3.97,-8.4 -0.93,-15.71 -1.93,-2.88 -3.35,-5.25 -6.22,-6.54 -2.52,-1.14 -4.77,-1.02 -7.6,-0.95 -2.73,0.07 -13.7,-0.45 -15.66,0.22 -7.45,2.57 -1.55,13.02 3,13.91 2.38,0.47 13.52,-0.41 15.53,0.39z"/>
     </clipPath>
        <mask id="id6">
          <linearGradient id="id7" gradientUnits="userSpaceOnUse" x1="42.85" y1="-2.43" x2="26.13" y2="-3.45">
           <stop offset="0" stop-opacity="1" stop-color="white"/>
           <stop offset="1" stop-opacity="0" stop-color="white"/>
          </linearGradient>
         <rect fill="url(#id7)" x="19.29" y="-11.96" width="26.39" height="19.62"/>
        </mask>
        <mask id="id8">
          <linearGradient id="id9" gradientUnits="userSpaceOnUse" x1="14.09" y1="32.49" x2="30.81" y2="33.52">
           <stop offset="0" stop-opacity="1" stop-color="white"/>
           <stop offset="1" stop-opacity="0" stop-color="white"/>
          </linearGradient>
         <rect fill="url(#id9)" x="11.26" y="22.4" width="26.39" height="19.63"/>
        </mask>
 </defs>
 <g id="Camada_x0020_1">
  <metadata id="CorelCorpID_0Corel-Layer"/>
  <g id="_2151670338848">
   <g>
    <path fill="#DB3D3D" d="M14.29 24.48c1.21,-3.28 5.18,-12.15 5.72,-14.21 0.71,-2.75 -1.19,-5.71 -3.53,-8.45 -1.77,-2.08 -5.26,-2.59 -7.71,-0.39 -1.5,1.35 -5.44,11.93 -6.43,14.35 -2.57,6.25 -3.97,8.38 0.93,15.71 4.83,7.22 7.05,7.75 13.83,7.49 2.6,-0.09 13.9,0.42 15.66,-0.23 7.55,-2.77 1.37,-12.96 -2.99,-13.88 -1.74,-0.36 -5.76,-0.16 -7.77,-0.14 -1.39,0.02 -6.76,0.24 -7.71,-0.25z"/>
    <g clip-path="url(#id0)">
     <g>
      <g>
       <path id="1" fill="#BF3131" mask="url(#id1)" d="M24.19 7.52l-4.76 -10.4 1.84 -8.94 19.33 3c6.87,2.5 5.6,8.03 2.05,14.41l-18.46 1.93z"/>
       <path fill="#BF3131" mask="url(#id3)" d="M32.75 22.54l4.76 10.4 -1.84 8.95 -19.33 -3.01c-6.87,-2.5 -5.6,-8.03 -2.05,-14.4l18.46 -1.94z"/>
      </g>
     </g>
    </g>
    <path fill="none" d="M14.29 24.48c1.21,-3.28 5.18,-12.15 5.72,-14.21 0.71,-2.75 -1.19,-5.71 -3.53,-8.45 -1.77,-2.08 -5.26,-2.59 -7.71,-0.39 -1.5,1.35 -5.44,11.93 -6.43,14.35 -2.57,6.25 -3.97,8.38 0.93,15.71 4.83,7.22 7.05,7.75 13.83,7.49 2.6,-0.09 13.9,0.42 15.66,-0.23 7.55,-2.77 1.37,-12.96 -2.99,-13.88 -1.74,-0.36 -5.76,-0.16 -7.77,-0.14 -1.39,0.02 -6.76,0.24 -7.71,-0.25z"/>
    <path fill="#DB3D3D" d="M42.65 23.4c-0.84,2.01 -1.92,4.56 -2.88,6.97l-2.93 7.21c-1,4.14 5.41,14.14 11.27,8.85 1.53,-1.38 5.38,-11.86 6.42,-14.35 2.57,-6.17 3.97,-8.4 -0.93,-15.71 -1.93,-2.88 -3.35,-5.25 -6.22,-6.54 -2.52,-1.14 -4.77,-1.02 -7.6,-0.95 -2.73,0.07 -13.7,-0.45 -15.66,0.22 -7.45,2.57 -1.55,13.02 3,13.91 2.38,0.47 13.52,-0.41 15.53,0.39z"/>
    <g clip-path="url(#id5)">
     <g>
      <g>
       <path id="1" fill="#BF3131" mask="url(#id6)" d="M24.19 7.52l-4.76 -10.4 1.84 -8.94 19.33 3c6.87,2.5 5.6,8.03 2.05,14.41l-18.46 1.93z"/>
       <path fill="#BF3131" mask="url(#id8)" d="M32.75 22.54l4.76 10.4 -1.84 8.95 -19.33 -3.01c-6.87,-2.5 -5.6,-8.03 -2.05,-14.4l18.46 -1.94z"/>
      </g>
     </g>
    </g>
    <path fill="none" d="M42.65 23.4c-0.84,2.01 -1.92,4.56 -2.88,6.97l-2.93 7.21c-1,4.14 5.41,14.14 11.27,8.85 1.53,-1.38 5.38,-11.86 6.42,-14.35 2.57,-6.17 3.97,-8.4 -0.93,-15.71 -1.93,-2.88 -3.35,-5.25 -6.22,-6.54 -2.52,-1.14 -4.77,-1.02 -7.6,-0.95 -2.73,0.07 -13.7,-0.45 -15.66,0.22 -7.45,2.57 -1.55,13.02 3,13.91 2.38,0.47 13.52,-0.41 15.53,0.39z"/>
   </g>
   <g>
    <g>
     <path fill="#24364D" fill-rule="nonzero" d="M88.5 40.16c0.17,0.11 0.36,0.06 0.49,-0.11l2.63 -4.31c0.1,-0.18 0.05,-0.4 -0.13,-0.5 -0.16,-0.1 -0.38,-0.05 -0.48,0.12l-2.63 4.32c-0.1,0.16 -0.05,0.38 0.12,0.48z"/>
     <path id="1" fill="#24364D" fill-rule="nonzero" d="M92.12 40.16c0.17,0.11 0.35,0.06 0.49,-0.11l2.62 -4.31c0.11,-0.18 0.05,-0.4 -0.12,-0.5 -0.16,-0.1 -0.39,-0.05 -0.49,0.12l-2.62 4.32c-0.1,0.16 -0.05,0.38 0.12,0.48z"/>
     <path id="2" fill="#24364D" fill-rule="nonzero" d="M99.68 36.58c-1,0 -1.81,0.81 -1.81,1.81 0,0.99 0.81,1.8 1.81,1.8 0.99,0 1.8,-0.81 1.8,-1.8 0,0 0,-0.01 0,-0.01l0 -3.22c0,-0.2 -0.16,-0.36 -0.36,-0.36 -0.19,0 -0.35,0.16 -0.35,0.36l0 1.79c-0.3,-0.23 -0.68,-0.37 -1.09,-0.37zm0 2.89c-0.61,0 -1.1,-0.49 -1.1,-1.08 0,-0.61 0.49,-1.09 1.1,-1.09 0.6,0 1.09,0.48 1.09,1.08l0 0.01c0,0 0,0 0,0 0,0.6 -0.49,1.08 -1.09,1.08z"/>
     <path id="3" fill="#24364D" fill-rule="nonzero" d="M103.7 36.58c-1,0 -1.8,0.81 -1.8,1.82 0,0.99 0.8,1.8 1.8,1.8 0.27,0 0.64,0.01 1.11,-0.31 0.17,-0.11 0.26,-0.29 0.17,-0.47 -0.08,-0.18 -0.31,-0.28 -0.47,-0.17 -0.35,0.22 -0.64,0.24 -0.81,0.24 -0.48,0 -0.88,-0.31 -1.03,-0.74l2.48 0c0.2,0 0.36,-0.16 0.36,-0.35 0,-1.18 -0.94,-1.82 -1.81,-1.82zm0 0.72c0.43,0 0.89,0.23 1.05,0.74l-2.08 0c0.15,-0.43 0.55,-0.74 1.03,-0.74z"/>
     <path id="4" fill="#24364D" fill-rule="nonzero" d="M108.02 38.32c-0.6,-0.46 -1.38,-0.13 -1.38,-0.64 0,-0.25 0.23,-0.4 0.5,-0.4 0.2,0 0.5,0.07 0.6,0.27 0.09,0.13 0.16,0.24 0.33,0.24 0.2,0 0.36,-0.16 0.37,-0.34 0,-0.44 -0.52,-0.68 -0.6,-0.71 -0.21,-0.11 -0.45,-0.17 -0.69,-0.17 -0.63,0 -1.21,0.41 -1.21,1.1 0,0.79 0.75,1.03 1.19,1.08 0.35,0.03 0.6,0.13 0.6,0.38 -0.01,0.05 -0.04,0.37 -0.5,0.37 -0.31,-0.02 -0.49,-0.11 -0.65,-0.34 -0.07,-0.08 -0.17,-0.13 -0.27,-0.13 -0.21,0 -0.37,0.17 -0.37,0.35 0,0.03 0,0.07 0.01,0.09 0.2,0.51 0.79,0.73 1.29,0.73 1.05,0 1.2,-0.87 1.2,-1.07 0,-0.3 -0.16,-0.6 -0.42,-0.81z"/>
     <path id="5" fill="#24364D" fill-rule="nonzero" d="M110.63 36.58c-1,0 -1.81,0.81 -1.81,1.82 0,0.99 0.81,1.8 1.81,1.8 0.26,0 0.63,0.01 1.1,-0.31 0.17,-0.11 0.26,-0.29 0.18,-0.47 -0.09,-0.18 -0.31,-0.28 -0.48,-0.17 -0.34,0.22 -0.64,0.24 -0.8,0.24 -0.48,0 -0.89,-0.31 -1.04,-0.74l2.48 0c0.2,0 0.36,-0.16 0.36,-0.35 0,-1.18 -0.93,-1.82 -1.8,-1.82zm0 0.72c0.43,0 0.89,0.23 1.04,0.74l-2.08 0c0.15,-0.43 0.56,-0.74 1.04,-0.74z"/>
     <path id="6" fill="#24364D" fill-rule="nonzero" d="M114.67 36.58c-0.99,0 -1.81,0.81 -1.81,1.81l0 1.45c0,0.2 0.16,0.36 0.36,0.36 0.2,0 0.35,-0.16 0.35,-0.36l0 -1.45c0,-0.6 0.49,-1.09 1.1,-1.09 0.6,0 1.09,0.49 1.09,1.09l0 1.45c0,0.2 0.16,0.36 0.35,0.36 0.2,0 0.36,-0.16 0.36,-0.36l0 -1.45c0,-1 -0.81,-1.81 -1.8,-1.81z"/>
     <path id="7" fill="#24364D" fill-rule="nonzero" d="M119.25 36.63c-0.19,-0.07 -0.39,0.02 -0.46,0.21l-0.75 2 -0.76 -2c-0.07,-0.19 -0.27,-0.28 -0.46,-0.21 -0.18,0.06 -0.28,0.27 -0.2,0.46l1.07 2.87c0.05,0.14 0.19,0.24 0.34,0.24 0,0 0,0 0.01,0 0.14,0 0.28,-0.09 0.34,-0.24l1.08 -2.87c0.07,-0.19 -0.03,-0.4 -0.21,-0.46z"/>
     <path id="8" fill="#24364D" fill-rule="nonzero" d="M121.4 40.2c1,0 1.81,-0.81 1.81,-1.81 0,-1 -0.81,-1.81 -1.81,-1.81 -0.99,0 -1.8,0.81 -1.8,1.81 0,1 0.81,1.81 1.8,1.81zm0 -2.9c0.61,0 1.1,0.49 1.1,1.09 0,0.6 -0.49,1.1 -1.1,1.1 -0.6,0 -1.09,-0.5 -1.09,-1.1 0,-0.6 0.49,-1.09 1.09,-1.09z"/>
     <path id="9" fill="#24364D" fill-rule="nonzero" d="M123.98 40.2c0.19,0 0.35,-0.16 0.35,-0.36l0 -4.67c0,-0.2 -0.16,-0.35 -0.35,-0.35 -0.2,0 -0.36,0.15 -0.36,0.35l0 4.67c0,0.2 0.16,0.36 0.36,0.36z"/>
     <path id="10" fill="#24364D" fill-rule="nonzero" d="M127.43 36.63c-0.19,-0.07 -0.39,0.02 -0.46,0.21l-0.75 2 -0.75 -2c-0.08,-0.19 -0.28,-0.28 -0.46,-0.21 -0.19,0.06 -0.28,0.27 -0.21,0.46l1.08 2.87c0.05,0.14 0.18,0.24 0.33,0.24 0,0 0,0 0.01,0 0.15,0 0.28,-0.09 0.34,-0.24l1.08 -2.87c0.07,-0.19 -0.02,-0.4 -0.21,-0.46z"/>
     <path id="11" fill="#24364D" fill-rule="nonzero" d="M129.59 36.58c-1,0 -1.81,0.81 -1.81,1.82 0,0.99 0.81,1.8 1.81,1.8 0.26,0 0.63,0.01 1.1,-0.31 0.17,-0.11 0.26,-0.29 0.18,-0.47 -0.09,-0.18 -0.31,-0.28 -0.48,-0.17 -0.34,0.22 -0.64,0.24 -0.8,0.24 -0.49,0 -0.89,-0.31 -1.04,-0.74l2.48 0c0.2,0 0.36,-0.16 0.36,-0.35 0,-1.18 -0.93,-1.82 -1.8,-1.82zm0 0.72c0.43,0 0.89,0.23 1.04,0.74l-2.08 0c0.15,-0.43 0.55,-0.74 1.04,-0.74z"/>
     <path id="12" fill="#24364D" fill-rule="nonzero" d="M133.63 36.58c-1,0 -1.8,0.81 -1.8,1.81 0,0.99 0.8,1.8 1.8,1.8 1,0 1.81,-0.81 1.81,-1.8 0,0 0,-0.01 0,-0.01l0 -3.22c0,-0.2 -0.16,-0.36 -0.36,-0.36 -0.19,0 -0.35,0.16 -0.35,0.36l0 1.79c-0.3,-0.23 -0.69,-0.37 -1.1,-0.37zm0 2.89c-0.6,0 -1.09,-0.49 -1.09,-1.08 0,-0.61 0.49,-1.09 1.09,-1.09 0.61,0 1.1,0.48 1.1,1.08l0 0.01c0,0 0,0 0,0 0,0.6 -0.49,1.08 -1.1,1.08z"/>
     <path id="13" fill="#24364D" fill-rule="nonzero" d="M137.65 40.2c1,0 1.81,-0.81 1.81,-1.81 0,-1 -0.81,-1.81 -1.81,-1.81 -0.99,0 -1.8,0.81 -1.8,1.81 0,1 0.81,1.81 1.8,1.81zm0 -2.9c0.61,0 1.1,0.49 1.1,1.09 0,0.6 -0.49,1.1 -1.1,1.1 -0.6,0 -1.09,-0.5 -1.09,-1.1 0,-0.6 0.49,-1.09 1.09,-1.09z"/>
     <path id="14" fill="#24364D" fill-rule="nonzero" d="M141.69 36.6c-1,0 -1.81,0.8 -1.81,1.8l0 1.44c0,0.2 0.16,0.36 0.36,0.36 0.2,0 0.35,-0.16 0.35,-0.36l0 -1.44c0,-0.6 0.49,-1.09 1.1,-1.09 0.2,0 0.36,-0.16 0.36,-0.36 0,-0.19 -0.16,-0.35 -0.36,-0.35z"/>
     <path id="15" fill="#24364D" fill-rule="nonzero" d="M146.01 36.58c-0.99,0 -1.81,0.81 -1.81,1.81l0 1.45c0,0.2 0.16,0.36 0.36,0.36 0.2,0 0.36,-0.16 0.36,-0.36l0 -1.45c0,-0.6 0.48,-1.09 1.09,-1.09 0.6,0 1.09,0.49 1.09,1.09l0 1.45c0,0.2 0.16,0.36 0.35,0.36 0.2,0 0.36,-0.16 0.36,-0.36l0 -1.45c0,-1 -0.81,-1.81 -1.8,-1.81z"/>
     <path id="16" fill="#24364D" fill-rule="nonzero" d="M150.04 40.2c1,0 1.81,-0.81 1.81,-1.81 0,-1 -0.81,-1.81 -1.81,-1.81 -0.99,0 -1.8,0.81 -1.8,1.81 0,1 0.81,1.81 1.8,1.81zm0 -2.9c0.61,0 1.09,0.49 1.09,1.09 0,0.6 -0.48,1.1 -1.09,1.1 -0.6,0 -1.09,-0.5 -1.09,-1.1 0,-0.6 0.49,-1.09 1.09,-1.09z"/>
     <path id="17" fill="#24364D" fill-rule="nonzero" d="M158.82 40.2c0.62,0 1.19,-0.31 1.52,-0.82 0.11,-0.17 0.06,-0.39 -0.1,-0.5 -0.17,-0.1 -0.39,-0.06 -0.5,0.11 -0.2,0.31 -0.55,0.5 -0.92,0.5 -0.6,0 -1.09,-0.49 -1.09,-1.09 0,-0.6 0.49,-1.09 1.09,-1.09 0.4,0 0.76,0.21 0.95,0.54 0.1,0.17 0.32,0.23 0.49,0.13 0.16,-0.1 0.23,-0.31 0.13,-0.48 -0.33,-0.56 -0.92,-0.9 -1.57,-0.9 -0.99,0 -1.8,0.8 -1.8,1.8 0,0.99 0.81,1.8 1.8,1.8z"/>
     <path id="18" fill="#24364D" fill-rule="nonzero" d="M162.57 40.2c1,0 1.8,-0.81 1.8,-1.81 0,-1 -0.8,-1.81 -1.8,-1.81 -1,0 -1.81,0.81 -1.81,1.81 0,1 0.81,1.81 1.81,1.81zm0 -2.9c0.6,0 1.09,0.49 1.09,1.09 0,0.6 -0.49,1.1 -1.09,1.1 -0.61,0 -1.1,-0.5 -1.1,-1.1 0,-0.6 0.49,-1.09 1.1,-1.09z"/>
     <path id="19" fill="#24364D" fill-rule="nonzero" d="M166.61 36.58c-1,0 -1.81,0.81 -1.81,1.81 0,0.99 0.81,1.8 1.81,1.8 0.99,0 1.8,-0.81 1.8,-1.8 0,0 0,-0.01 0,-0.01l0 -3.22c0,-0.2 -0.16,-0.36 -0.36,-0.36 -0.19,0 -0.35,0.16 -0.35,0.36l0 1.79c-0.3,-0.23 -0.68,-0.37 -1.09,-0.37zm0 2.89c-0.61,0 -1.1,-0.49 -1.1,-1.08 0,-0.61 0.49,-1.09 1.1,-1.09 0.6,0 1.09,0.48 1.09,1.08l0 0.01c0,0 0,0 0,0 0,0.6 -0.49,1.08 -1.09,1.08z"/>
     <path id="20" fill="#24364D" fill-rule="nonzero" d="M170.63 36.58c-1,0 -1.8,0.81 -1.8,1.82 0,0.99 0.8,1.8 1.8,1.8 0.27,0 0.64,0.01 1.11,-0.31 0.17,-0.11 0.26,-0.29 0.17,-0.47 -0.08,-0.18 -0.31,-0.28 -0.47,-0.17 -0.35,0.22 -0.64,0.24 -0.81,0.24 -0.48,0 -0.88,-0.31 -1.03,-0.74l2.48 0c0.2,0 0.36,-0.16 0.36,-0.35 0,-1.18 -0.94,-1.82 -1.81,-1.82zm0 0.72c0.43,0 0.9,0.23 1.05,0.74l-2.08 0c0.15,-0.43 0.55,-0.74 1.03,-0.74z"/>
     <path id="21" fill="#24364D" fill-rule="nonzero" d="M152.27 39.83c0,0.2 0.16,0.36 0.36,0.36l3.59 0c0.2,0 0.36,-0.16 0.36,-0.36 0,-0.2 -0.16,-0.36 -0.36,-0.36l-3.59 0c-0.2,0 -0.36,0.16 -0.36,0.36z"/>
    </g>
    <path fill="#24364D" fill-rule="nonzero" d="M71.24 30.26c3.61,0 6.83,-1.8 8.82,-4.88 0.54,-0.69 0.18,-1.62 -0.54,-1.98 -0.51,-0.55 -1.63,-0.37 -1.99,0.36 -1.42,2.17 -3.8,3.43 -6.29,3.43 -4.13,0 -7.56,-3.25 -7.56,-7.41 0,-4.13 3.43,-7.53 7.56,-7.53 2.68,0 5.05,1.42 6.47,3.77 0.36,0.72 1.3,0.9 1.99,0.54 0.72,-0.33 1.08,-1.27 0.54,-2.17 -1.81,-3.25 -5.21,-5.21 -9,-5.21 -5.79,0 -10.64,4.67 -10.64,10.6 0,5.78 4.85,10.48 10.64,10.48z"/>
    <path id="1" fill="#24364D" fill-rule="nonzero" d="M89.61 15.2c-4.25,0 -7.62,3.38 -7.62,7.64 0,4.26 3.37,7.42 7.62,7.42 1.71,0 3.16,-0.42 4.46,-1.5l0 0c0,0.87 0.84,1.5 1.44,1.5 0.87,0 1.51,-0.63 1.51,-1.5l0 -5.92c0,-4.26 -3.17,-7.64 -7.41,-7.64zm0 12.11c-2.53,0 -4.67,-1.93 -4.67,-4.47 0,-2.54 2.14,-4.69 4.67,-4.69 2.53,0 4.46,2.15 4.46,4.69 0,2.54 -1.93,4.47 -4.46,4.47z"/>
    <path id="2" fill="#24364D" fill-rule="nonzero" d="M106.38 15.17c-4.15,0 -7.56,3.37 -7.56,7.55l0 6.04c0,0.81 0.67,1.5 1.51,1.5 0.81,0 1.48,-0.69 1.48,-1.5l0 -6.04c0,-2.52 2.04,-4.57 4.57,-4.57 0.85,0 1.51,-0.69 1.51,-1.5 0,-0.81 -0.66,-1.48 -1.51,-1.48z"/>
    <path id="3" fill="#24364D" fill-rule="nonzero" d="M120.84 15.29c-0.78,-0.3 -1.63,0.09 -1.93,0.88l-3.13 8.4 -3.16 -8.4c-0.3,-0.79 -1.15,-1.18 -1.93,-0.88 -0.78,0.27 -1.17,1.15 -0.87,1.93l4.51 12.05c0.22,0.57 0.79,0.99 1.42,0.99 0,0 0,0 0.03,0 0.6,0 1.18,-0.39 1.42,-0.99l4.51 -12.05c0.31,-0.78 -0.09,-1.66 -0.87,-1.93z"/>
    <path id="4" fill="#24364D" fill-rule="nonzero" d="M129.91 15.2c-4.25,0 -7.62,3.38 -7.62,7.64 0,4.26 3.37,7.42 7.62,7.42 1.71,0 3.16,-0.42 4.45,-1.5l0 0c0,0.87 0.85,1.5 1.45,1.5 0.87,0 1.51,-0.63 1.51,-1.5l0 -5.92c0,-4.26 -3.17,-7.64 -7.41,-7.64zm0 12.11c-2.53,0 -4.67,-1.93 -4.67,-4.47 0,-2.54 2.14,-4.69 4.67,-4.69 2.53,0 4.45,2.15 4.45,4.69 0,2.54 -1.92,4.47 -4.45,4.47z"/>
    <path id="5" fill="#24364D" fill-rule="nonzero" d="M140.57 30.26c0.81,0 1.47,-0.66 1.47,-1.5l0 -19.58c0,-0.81 -0.66,-1.48 -1.47,-1.48 -0.85,0 -1.51,0.67 -1.51,1.48l0 19.58c0,0.84 0.66,1.5 1.51,1.5z"/>
    <path id="6" fill="#24364D" fill-rule="nonzero" d="M150.54 15.11c-1.36,0 -2.59,0.39 -3.65,1.09l0 -7.06c0,-0.8 -0.66,-1.47 -1.5,-1.47 -0.82,0 -1.48,0.67 -1.48,1.47l0 19.61c0,0.84 0.66,1.51 1.48,1.51 0.84,0 1.5,-0.67 1.5,-1.51l0 -7.01c0,-2.02 1.63,-3.65 3.65,-3.65 2.02,0 3.67,1.63 3.67,3.65l0 7.01c0,0.84 0.66,1.51 1.48,1.51 0.81,0 1.5,-0.67 1.5,-1.51l0 -7.01c0,-3.65 -2.98,-6.63 -6.65,-6.63z"/>
    <path id="7" fill="#24364D" fill-rule="nonzero" d="M166.44 30.26c4.19,0 7.56,-3.4 7.56,-7.57 0,-4.2 -3.37,-7.58 -7.56,-7.58 -4.16,0 -7.56,3.38 -7.56,7.58 0,4.17 3.4,7.57 7.56,7.57zm0 -12.17c2.53,0 4.58,2.06 4.58,4.6 0,2.51 -2.05,4.59 -4.58,4.59 -2.53,0 -4.58,-2.08 -4.58,-4.59 0,-2.54 2.05,-4.6 4.58,-4.6z"/>
   </g>
  </g>
 </g>
</svg>
