<?xml version="1.0" encoding="UTF-8"?>
<!DOCTYPE svg PUBLIC "-//W3C//DTD SVG 1.0//EN" "http://www.w3.org/TR/2001/REC-SVG-20010904/DTD/svg10.dtd">
<!-- Creator: CorelDRAW 2020 (64 Bit) -->
<svg xmlns="http://www.w3.org/2000/svg" xml:space="preserve" width="166px" height="37px" version="1.0" shape-rendering="geometricPrecision" text-rendering="geometricPrecision" image-rendering="optimizeQuality" fill-rule="evenodd" clip-rule="evenodd"
viewBox="0 0 169.05 37.69"
 xmlns:xlink="http://www.w3.org/1999/xlink"
 xmlns:xodm="http://www.corel.com/coreldraw/odm/2003">
 <defs>
     <clipPath id="id0">
      <path d="M11.24 19.25c0.95,-2.58 4.07,-9.55 4.49,-11.18 0.56,-2.16 -0.93,-4.48 -2.77,-6.64 -1.4,-1.64 -4.14,-2.04 -6.06,-0.3 -1.18,1.06 -4.28,9.38 -5.06,11.27 -2.02,4.92 -3.12,6.6 0.73,12.36 3.8,5.68 5.54,6.09 10.88,5.89 2.04,-0.07 10.92,0.33 12.31,-0.18 5.94,-2.18 1.07,-10.19 -2.35,-10.91 -1.37,-0.29 -4.53,-0.13 -6.11,-0.11 -1.09,0.01 -5.31,0.18 -6.06,-0.2z"/>
     </clipPath>
        <mask id="id1">
          <linearGradient id="id2" gradientUnits="userSpaceOnUse" x1="33.69" y1="12.09" x2="20.55" y2="11.29">
           <stop offset="0" stop-opacity="1" stop-color="white"/>
           <stop offset="1" stop-opacity="0" stop-color="white"/>
          </linearGradient>
         <rect fill="url(#id2)" x="15.17" y="4.6" width="20.75" height="15.43"/>
        </mask>
        <mask id="id3">
          <linearGradient id="id4" gradientUnits="userSpaceOnUse" x1="11.08" y1="25.55" x2="24.22" y2="26.35">
           <stop offset="0" stop-opacity="1" stop-color="white"/>
           <stop offset="1" stop-opacity="0" stop-color="white"/>
          </linearGradient>
         <rect fill="url(#id4)" x="8.86" y="17.61" width="20.74" height="15.43"/>
        </mask>
     <clipPath id="id5">
      <path d="M33.53 18.4c-0.65,1.58 -1.5,3.58 -2.26,5.48l-2.3 5.67c-0.79,3.26 4.25,11.12 8.86,6.96 1.2,-1.09 4.23,-9.33 5.05,-11.28 2.02,-4.86 3.12,-6.61 -0.73,-12.36 -1.52,-2.26 -2.64,-4.12 -4.89,-5.14 -1.99,-0.9 -3.75,-0.8 -5.98,-0.75 -2.14,0.06 -10.77,-0.35 -12.31,0.18 -5.86,2.02 -1.23,10.23 2.35,10.93 1.88,0.37 10.64,-0.32 12.21,0.31z"/>
     </clipPath>
        <mask id="id6">
          <linearGradient id="id7" gradientUnits="userSpaceOnUse" x1="33.69" y1="12.09" x2="20.55" y2="11.29">
           <stop offset="0" stop-opacity="1" stop-color="white"/>
           <stop offset="1" stop-opacity="0" stop-color="white"/>
          </linearGradient>
         <rect fill="url(#id7)" x="15.17" y="4.6" width="20.75" height="15.43"/>
        </mask>
        <mask id="id8">
          <linearGradient id="id9" gradientUnits="userSpaceOnUse" x1="11.08" y1="25.55" x2="24.22" y2="26.35">
           <stop offset="0" stop-opacity="1" stop-color="white"/>
           <stop offset="1" stop-opacity="0" stop-color="white"/>
          </linearGradient>
         <rect fill="url(#id9)" x="8.86" y="17.61" width="20.74" height="15.43"/>
        </mask>
 </defs>
 <g id="Camada_x0020_1">
  <metadata id="CorelCorpID_0Corel-Layer"/>
  <g id="_1842471128576">
   <g>
    <path fill="#DB3D3D" d="M11.24 19.25c0.95,-2.58 4.07,-9.55 4.49,-11.18 0.56,-2.16 -0.93,-4.48 -2.77,-6.64 -1.4,-1.64 -4.14,-2.04 -6.06,-0.3 -1.18,1.06 -4.28,9.38 -5.06,11.27 -2.02,4.92 -3.12,6.6 0.73,12.36 3.8,5.68 5.54,6.09 10.88,5.89 2.04,-0.07 10.92,0.33 12.31,-0.18 5.94,-2.18 1.07,-10.19 -2.35,-10.91 -1.37,-0.29 -4.53,-0.13 -6.11,-0.11 -1.09,0.01 -5.31,0.18 -6.06,-0.2z"/>
    <g clip-path="url(#id0)">
     <g>
      <g>
       <path id="1" fill="#BF3131" mask="url(#id1)" d="M19.02 19.92l-3.74 -8.18 1.45 -7.03 15.19 2.36c5.4,1.96 4.41,6.31 1.61,11.33l-14.51 1.52z"/>
       <path fill="#BF3131" mask="url(#id3)" d="M25.75 17.72l3.74 8.18 -1.45 7.03 -15.19 -2.36c-5.4,-1.96 -4.41,-6.31 -1.61,-11.32l14.51 -1.53z"/>
      </g>
     </g>
    </g>
    <path fill="none" d="M11.24 19.25c0.95,-2.58 4.07,-9.55 4.49,-11.18 0.56,-2.16 -0.93,-4.48 -2.77,-6.64 -1.4,-1.64 -4.14,-2.04 -6.06,-0.3 -1.18,1.06 -4.28,9.38 -5.06,11.27 -2.02,4.92 -3.12,6.6 0.73,12.36 3.8,5.68 5.54,6.09 10.88,5.89 2.04,-0.07 10.92,0.33 12.31,-0.18 5.94,-2.18 1.07,-10.19 -2.35,-10.91 -1.37,-0.29 -4.53,-0.13 -6.11,-0.11 -1.09,0.01 -5.31,0.18 -6.06,-0.2z"/>
    <path fill="#DB3D3D" d="M33.53 18.4c-0.65,1.58 -1.5,3.58 -2.26,5.48l-2.3 5.67c-0.79,3.26 4.25,11.12 8.86,6.96 1.2,-1.09 4.23,-9.33 5.05,-11.28 2.02,-4.86 3.12,-6.61 -0.73,-12.36 -1.52,-2.26 -2.64,-4.12 -4.89,-5.14 -1.99,-0.9 -3.75,-0.8 -5.98,-0.75 -2.14,0.06 -10.77,-0.35 -12.31,0.18 -5.86,2.02 -1.23,10.23 2.35,10.93 1.88,0.37 10.64,-0.32 12.21,0.31z"/>
    <g clip-path="url(#id5)">
     <g>
      <g>
       <path id="1" fill="#BF3131" mask="url(#id6)" d="M19.02 19.92l-3.74 -8.18 1.45 -7.03 15.19 2.36c5.4,1.96 4.41,6.31 1.61,11.33l-14.51 1.52z"/>
       <path fill="#BF3131" mask="url(#id8)" d="M25.75 17.72l3.74 8.18 -1.45 7.03 -15.19 -2.36c-5.4,-1.96 -4.41,-6.31 -1.61,-11.32l14.51 -1.53z"/>
      </g>
     </g>
    </g>
    <path fill="none" d="M33.53 18.4c-0.65,1.58 -1.5,3.58 -2.26,5.48l-2.3 5.67c-0.79,3.26 4.25,11.12 8.86,6.96 1.2,-1.09 4.23,-9.33 5.05,-11.28 2.02,-4.86 3.12,-6.61 -0.73,-12.36 -1.52,-2.26 -2.64,-4.12 -4.89,-5.14 -1.99,-0.9 -3.75,-0.8 -5.98,-0.75 -2.14,0.06 -10.77,-0.35 -12.31,0.18 -5.86,2.02 -1.23,10.23 2.35,10.93 1.88,0.37 10.64,-0.32 12.21,0.31z"/>
   </g>
   <path fill="#24364D" fill-rule="nonzero" d="M48.8 19.03c0,3.71 2.33,6.32 6.14,6.32 3.29,0 5.52,-1.96 6.03,-4.9l-4.11 0c-0.37,0.83 -1.11,1.3 -1.99,1.3 -1.31,0 -2.12,-1.07 -2.12,-2.72 0,-1.65 0.81,-2.72 2.12,-2.72 0.88,0 1.62,0.47 1.99,1.3l4.11 0c-0.51,-2.93 -2.74,-4.9 -6.03,-4.9 -3.81,0 -6.14,2.62 -6.14,6.32zm21.47 6.24l4.11 0 -4.53 -12.44 -4.49 0 -4.55 12.44 4.09 0 0.61 -1.88 4.15 0 0.61 1.88zm-1.56 -4.82l-2.25 0 1.13 -3.46 1.12 3.46zm12.44 -3.3c0,0.74 -0.39,1.06 -1.13,1.06l-1.54 0 0 -2.11 1.54 0c0.74,0 1.13,0.42 1.13,1.05zm-6.57 -4.32l0 12.44 3.9 0 0 -4.46 0.01 0 2.34 4.46 4.28 0 -2.7 -4.76c1.77,-0.58 2.69,-1.97 2.69,-3.6 0,-2.29 -1.6,-4.08 -4.73,-4.08l-5.79 0zm16.91 8.56l-2.57 -8.56 -4.14 0 4.18 12.44 5.04 0 4.18 -12.44 -4.14 0 -2.55 8.56zm15.47 3.88l4.11 0 -4.53 -12.44 -4.5 0 -4.55 12.44 4.1 0 0.61 -1.88 4.15 0 0.61 1.88zm-1.56 -4.82l-2.25 0 1.12 -3.46 1.13 3.46zm5.86 -7.62l0 12.44 7.66 0 0 -2.95 -3.76 0 0 -9.49 -3.9 0zm15.81 12.44l3.9 0 0 -12.44 -3.9 0 0 4.48 -3.71 0 0 -4.48 -3.9 0 0 12.44 3.9 0 0 -4.85 3.71 0 0 4.85zm17.4 -6.27c0,-3.74 -2.83,-6.38 -6.37,-6.38 -3.53,0 -6.41,2.64 -6.41,6.38 0,3.74 2.88,6.39 6.41,6.39 3.51,0 6.37,-2.65 6.37,-6.39zm-8.81 0c0,-1.69 0.84,-2.78 2.44,-2.78 1.56,0 2.42,1.09 2.42,2.78 0,1.65 -0.86,2.75 -2.42,2.75 -1.6,0 -2.44,-1.1 -2.44,-2.75z"/>
   <path fill="#65768C" fill-rule="nonzero" d="M146.8 21.65c0,2.25 1.5,3.77 3.45,3.77 1.32,0 2.26,-0.67 2.7,-1.48l0 1.37 1.22 0 0 -9.81 -1.22 0 0 3.84c-0.5,-0.84 -1.55,-1.42 -2.69,-1.42 -1.96,0 -3.46,1.46 -3.46,3.73zm6.15 0.01c0,1.71 -1.14,2.7 -2.46,2.7 -1.33,0 -2.46,-1 -2.46,-2.71 0,-1.71 1.13,-2.68 2.46,-2.68 1.32,0 2.46,1.01 2.46,2.69zm5.54 -2.72c1.24,0 2.3,0.78 2.29,2.2l-4.59 0c0.14,-1.42 1.12,-2.2 2.3,-2.2zm3.39 4.13l-1.3 0c-0.26,0.78 -0.95,1.33 -2.04,1.33 -1.23,0 -2.27,-0.8 -2.36,-2.28l5.81 0c0.02,-0.25 0.04,-0.46 0.04,-0.73 0,-1.98 -1.38,-3.47 -3.49,-3.47 -2.12,0 -3.59,1.45 -3.59,3.74 0,2.31 1.52,3.76 3.59,3.76 1.8,0 2.97,-1.03 3.34,-2.35zm0.06 -5.03l2.85 7.27 1.41 0 2.85 -7.27 -1.29 0 -2.25 6.15 -2.27 -6.15 -1.3 0z"/>
  </g>
 </g>
</svg>
